<svg width="512" height="512" viewBox="0 0 512 512" fill="none" xmlns="http://www.w3.org/2000/svg">
<mask id="path-1-outside-1_178_15" maskUnits="userSpaceOnUse" x="12" y="1" width="487" height="511" fill="black">
<rect fill="white" x="12" y="1" width="487" height="511"/>
<path fill-rule="evenodd" clip-rule="evenodd" d="M476.42 9H489.685C490.939 11.3079 490.641 17.9239 488.942 21.4099C486.129 27.3271 483.801 28.2001 470.414 27.9092C458.968 27.6181 458.58 27.7151 457.125 29.8492C453.827 35.0873 415.704 125.397 410.078 141.403L407.169 149.939L409.011 160.319C411.34 173.025 411.436 177.293 409.303 181.659C407.654 185.151 397.662 194.172 376.709 211.051L365.36 220.169L368.173 223.176C374.963 230.354 411.436 272.938 412.989 275.558C415.801 280.02 415.414 284.386 411.922 287.877C409.399 290.399 408.429 290.691 404.743 290.399C400.669 290.109 400.475 290.302 399.311 293.31C397.565 298.256 390.483 300.875 385.73 298.353C384.275 297.578 383.791 297.771 383.306 299.323C381.754 304.271 373.896 306.793 369.531 303.689C367.591 302.331 367.203 302.427 364.584 305.144C360.994 308.636 356.727 309.024 351.877 306.017C350.033 304.95 348.288 304.465 347.996 304.95C346.929 306.598 343.243 308.054 340.139 308.054C338.005 308.054 336.162 307.181 334.125 305.144C331.506 302.427 331.118 302.331 329.178 303.689C325.977 305.92 321.321 305.531 317.925 302.622C316.276 301.264 314.918 299.518 314.918 298.741C314.918 297.674 314.531 297.578 313.075 298.353C309.293 300.293 304.248 299.518 301.241 296.511C299.689 294.959 298.428 292.825 298.428 291.854C298.428 290.399 297.749 290.109 294.063 290.399C290.28 290.787 289.31 290.399 286.788 287.877C285.042 286.131 283.877 283.9 283.877 282.445C283.877 280.214 283.49 279.923 280.482 279.923C275.632 279.923 270.976 275.558 270.879 270.901C270.782 267.797 270.491 267.41 267.678 266.828C265.932 266.537 263.507 264.985 262.052 263.239C259.918 260.717 259.529 259.455 259.918 256.449C260.403 252.956 260.209 252.665 257.105 251.307C252.739 249.464 250.315 244.226 251.769 239.86C252.739 237.145 252.546 236.756 249.247 233.847C246.143 231.131 245.561 230.161 245.561 226.668C245.561 224.34 246.241 222.109 247.211 221.139C248.665 219.684 248.471 219.393 245.755 216.871C241.875 213.379 241.487 207.559 244.882 203.97C246.822 201.932 246.919 201.544 245.561 200.38C244.785 199.702 243.622 197.568 243.039 195.531C242.166 192.62 242.263 191.456 243.524 188.934C244.397 187.285 246.046 185.442 247.113 184.86C249.053 183.793 249.053 183.696 247.404 181.756C246.241 180.592 245.561 178.361 245.561 175.936C245.561 172.54 246.143 171.473 249.247 168.854C252.546 165.945 252.836 165.46 251.867 163.034C249.927 157.99 254.195 150.909 259.044 150.909C260.306 150.909 260.403 150.036 260.014 146.737C259.529 143.44 259.821 142.179 261.567 139.947C264.283 136.553 267.775 135.098 271.558 135.971C273.983 136.456 288.631 148.581 321.611 177.293C325.104 180.397 328.499 182.823 329.178 182.92C333.349 183.017 334.61 171.28 331.894 157.118C330.536 150.133 328.693 145.865 326.074 143.633L325.58 143.213C323.826 141.717 318.131 136.864 311.912 131.412C298.234 119.577 268.26 94.938 236.249 69.1354C221.408 57.3011 216.654 53.9059 214.423 53.9059C212.871 53.9059 207.924 55.264 203.365 56.816C198.903 58.4651 194.15 59.7261 192.889 59.7261C186.583 59.7261 169.317 48.2797 170.578 44.9817C171.451 42.8476 175.331 42.3626 196.09 41.6836C208.797 41.1985 216.267 41.3925 220.049 42.1686C224.706 43.1386 230.72 46.6307 255.94 62.8302C336.938 114.727 350.325 123.166 351.974 123.166C356.048 123.36 353.526 120.935 343.631 115.309C331.797 108.519 328.499 105.802 324.91 99.691C322.581 95.8112 322.581 95.423 324.037 93.1922C324.91 91.8339 326.074 90.767 326.462 90.767C326.947 90.767 327.917 89.1181 328.596 87.081C332.573 74.7616 339.072 67.9714 350.033 64.7703C353.914 63.6063 359.831 62.6362 363.032 62.6362C368.852 62.6362 369.24 62.8302 375.836 67.9714C383.403 73.8885 385.052 74.6646 391.745 75.6346C396.789 76.4106 397.953 77.8657 395.722 80.9698C395.332 81.5296 395.041 81.9487 394.93 82.4115C394.597 83.793 395.874 85.5617 400.96 92.6103C402.609 94.8411 402.609 94.938 394.17 102.795C388.544 108.131 385.73 111.525 385.73 112.884C385.73 114.144 387.089 117.734 388.738 121.032L391.745 127.046L415.219 79.9997C428.024 54.197 440.247 30.5282 442.186 27.5211C447.134 19.9549 458.289 13.8437 475.459 9.28454C475.822 9.18431 476.155 9.08973 476.42 9ZM306.964 504L309.875 501.575C313.366 498.665 322.096 481.398 324.134 473.153C325.977 465.974 325.686 462.677 321.709 444.343C318.41 429.405 312.494 391.767 310.942 375.568C309.583 362.085 309.875 360.533 318.799 331.334L324.328 313.098L320.739 312.516C318.799 312.225 315.598 310.867 313.561 309.509C311.62 308.151 308.71 307.084 307.061 307.084C302.987 307.084 298.428 304.95 295.13 301.36C293.481 299.712 291.347 298.353 290.377 298.353C289.31 298.353 286.496 297.189 284.072 295.832L279.706 293.213L280.288 296.996C280.676 299.13 281.161 309.703 281.549 320.665C282.035 338.028 281.84 342.393 280.094 355.1C278.93 363.055 277.96 373.337 277.96 377.896C277.863 387.596 278.057 388.372 291.347 416.503C298.234 431.151 300.465 436.68 299.98 438.523C299.689 439.784 297.555 442.5 295.421 444.537C289.988 449.581 289.31 451.037 290.668 455.013C291.347 457.147 293.384 459.476 296.488 461.706C304.345 467.333 304.636 468.206 303.763 482.465C303.278 489.256 302.89 496.822 302.89 499.344L302.793 504H306.964ZM58.1514 121.808C51.8462 115.891 44.377 109.488 41.5639 107.549C35.6467 103.668 30.6026 102.698 26.1404 104.735C20.5142 107.257 19.3502 112.981 23.4243 118.316C26.5284 122.293 43.698 137.62 50.0032 141.791C53.0103 143.828 61.2555 147.223 72.1198 150.812C95.4976 158.572 179.599 190.389 219.176 206.395C227.131 209.596 233.726 212.021 233.824 211.827C233.921 211.73 234.6 209.208 235.182 206.395C236.055 202.709 236.055 200.09 235.279 196.694C234.406 192.912 234.503 191.359 235.861 187.77C236.831 185.345 237.607 181.077 237.801 178.264L237.995 173.22L231.107 171.183C209.962 164.877 182.412 158.572 121.785 146.156C90.5504 139.851 78.425 136.94 74.6419 135.098C71.9258 133.642 64.5536 127.726 58.1514 121.808Z"/>
</mask>
<path fill-rule="evenodd" clip-rule="evenodd" d="M476.42 9H489.685C490.939 11.3079 490.641 17.9239 488.942 21.4099C486.129 27.3271 483.801 28.2001 470.414 27.9092C458.968 27.6181 458.58 27.7151 457.125 29.8492C453.827 35.0873 415.704 125.397 410.078 141.403L407.169 149.939L409.011 160.319C411.34 173.025 411.436 177.293 409.303 181.659C407.654 185.151 397.662 194.172 376.709 211.051L365.36 220.169L368.173 223.176C374.963 230.354 411.436 272.938 412.989 275.558C415.801 280.02 415.414 284.386 411.922 287.877C409.399 290.399 408.429 290.691 404.743 290.399C400.669 290.109 400.475 290.302 399.311 293.31C397.565 298.256 390.483 300.875 385.73 298.353C384.275 297.578 383.791 297.771 383.306 299.323C381.754 304.271 373.896 306.793 369.531 303.689C367.591 302.331 367.203 302.427 364.584 305.144C360.994 308.636 356.727 309.024 351.877 306.017C350.033 304.95 348.288 304.465 347.996 304.95C346.929 306.598 343.243 308.054 340.139 308.054C338.005 308.054 336.162 307.181 334.125 305.144C331.506 302.427 331.118 302.331 329.178 303.689C325.977 305.92 321.321 305.531 317.925 302.622C316.276 301.264 314.918 299.518 314.918 298.741C314.918 297.674 314.531 297.578 313.075 298.353C309.293 300.293 304.248 299.518 301.241 296.511C299.689 294.959 298.428 292.825 298.428 291.854C298.428 290.399 297.749 290.109 294.063 290.399C290.28 290.787 289.31 290.399 286.788 287.877C285.042 286.131 283.877 283.9 283.877 282.445C283.877 280.214 283.49 279.923 280.482 279.923C275.632 279.923 270.976 275.558 270.879 270.901C270.782 267.797 270.491 267.41 267.678 266.828C265.932 266.537 263.507 264.985 262.052 263.239C259.918 260.717 259.529 259.455 259.918 256.449C260.403 252.956 260.209 252.665 257.105 251.307C252.739 249.464 250.315 244.226 251.769 239.86C252.739 237.145 252.546 236.756 249.247 233.847C246.143 231.131 245.561 230.161 245.561 226.668C245.561 224.34 246.241 222.109 247.211 221.139C248.665 219.684 248.471 219.393 245.755 216.871C241.875 213.379 241.487 207.559 244.882 203.97C246.822 201.932 246.919 201.544 245.561 200.38C244.785 199.702 243.622 197.568 243.039 195.531C242.166 192.62 242.263 191.456 243.524 188.934C244.397 187.285 246.046 185.442 247.113 184.86C249.053 183.793 249.053 183.696 247.404 181.756C246.241 180.592 245.561 178.361 245.561 175.936C245.561 172.54 246.143 171.473 249.247 168.854C252.546 165.945 252.836 165.46 251.867 163.034C249.927 157.99 254.195 150.909 259.044 150.909C260.306 150.909 260.403 150.036 260.014 146.737C259.529 143.44 259.821 142.179 261.567 139.947C264.283 136.553 267.775 135.098 271.558 135.971C273.983 136.456 288.631 148.581 321.611 177.293C325.104 180.397 328.499 182.823 329.178 182.92C333.349 183.017 334.61 171.28 331.894 157.118C330.536 150.133 328.693 145.865 326.074 143.633L325.58 143.213C323.826 141.717 318.131 136.864 311.912 131.412C298.234 119.577 268.26 94.938 236.249 69.1354C221.408 57.3011 216.654 53.9059 214.423 53.9059C212.871 53.9059 207.924 55.264 203.365 56.816C198.903 58.4651 194.15 59.7261 192.889 59.7261C186.583 59.7261 169.317 48.2797 170.578 44.9817C171.451 42.8476 175.331 42.3626 196.09 41.6836C208.797 41.1985 216.267 41.3925 220.049 42.1686C224.706 43.1386 230.72 46.6307 255.94 62.8302C336.938 114.727 350.325 123.166 351.974 123.166C356.048 123.36 353.526 120.935 343.631 115.309C331.797 108.519 328.499 105.802 324.91 99.691C322.581 95.8112 322.581 95.423 324.037 93.1922C324.91 91.8339 326.074 90.767 326.462 90.767C326.947 90.767 327.917 89.1181 328.596 87.081C332.573 74.7616 339.072 67.9714 350.033 64.7703C353.914 63.6063 359.831 62.6362 363.032 62.6362C368.852 62.6362 369.24 62.8302 375.836 67.9714C383.403 73.8885 385.052 74.6646 391.745 75.6346C396.789 76.4106 397.953 77.8657 395.722 80.9698C395.332 81.5296 395.041 81.9487 394.93 82.4115C394.597 83.793 395.874 85.5617 400.96 92.6103C402.609 94.8411 402.609 94.938 394.17 102.795C388.544 108.131 385.73 111.525 385.73 112.884C385.73 114.144 387.089 117.734 388.738 121.032L391.745 127.046L415.219 79.9997C428.024 54.197 440.247 30.5282 442.186 27.5211C447.134 19.9549 458.289 13.8437 475.459 9.28454C475.822 9.18431 476.155 9.08973 476.42 9ZM306.964 504L309.875 501.575C313.366 498.665 322.096 481.398 324.134 473.153C325.977 465.974 325.686 462.677 321.709 444.343C318.41 429.405 312.494 391.767 310.942 375.568C309.583 362.085 309.875 360.533 318.799 331.334L324.328 313.098L320.739 312.516C318.799 312.225 315.598 310.867 313.561 309.509C311.62 308.151 308.71 307.084 307.061 307.084C302.987 307.084 298.428 304.95 295.13 301.36C293.481 299.712 291.347 298.353 290.377 298.353C289.31 298.353 286.496 297.189 284.072 295.832L279.706 293.213L280.288 296.996C280.676 299.13 281.161 309.703 281.549 320.665C282.035 338.028 281.84 342.393 280.094 355.1C278.93 363.055 277.96 373.337 277.96 377.896C277.863 387.596 278.057 388.372 291.347 416.503C298.234 431.151 300.465 436.68 299.98 438.523C299.689 439.784 297.555 442.5 295.421 444.537C289.988 449.581 289.31 451.037 290.668 455.013C291.347 457.147 293.384 459.476 296.488 461.706C304.345 467.333 304.636 468.206 303.763 482.465C303.278 489.256 302.89 496.822 302.89 499.344L302.793 504H306.964ZM58.1514 121.808C51.8462 115.891 44.377 109.488 41.5639 107.549C35.6467 103.668 30.6026 102.698 26.1404 104.735C20.5142 107.257 19.3502 112.981 23.4243 118.316C26.5284 122.293 43.698 137.62 50.0032 141.791C53.0103 143.828 61.2555 147.223 72.1198 150.812C95.4976 158.572 179.599 190.389 219.176 206.395C227.131 209.596 233.726 212.021 233.824 211.827C233.921 211.73 234.6 209.208 235.182 206.395C236.055 202.709 236.055 200.09 235.279 196.694C234.406 192.912 234.503 191.359 235.861 187.77C236.831 185.345 237.607 181.077 237.801 178.264L237.995 173.22L231.107 171.183C209.962 164.877 182.412 158.572 121.785 146.156C90.5504 139.851 78.425 136.94 74.6419 135.098C71.9258 133.642 64.5536 127.726 58.1514 121.808Z" fill="white"/>
<path fill-rule="evenodd" clip-rule="evenodd" d="M476.42 9H489.685C490.939 11.3079 490.641 17.9239 488.942 21.4099C486.129 27.3271 483.801 28.2001 470.414 27.9092C458.968 27.6181 458.58 27.7151 457.125 29.8492C453.827 35.0873 415.704 125.397 410.078 141.403L407.169 149.939L409.011 160.319C411.34 173.025 411.436 177.293 409.303 181.659C407.654 185.151 397.662 194.172 376.709 211.051L365.36 220.169L368.173 223.176C374.963 230.354 411.436 272.938 412.989 275.558C415.801 280.02 415.414 284.386 411.922 287.877C409.399 290.399 408.429 290.691 404.743 290.399C400.669 290.109 400.475 290.302 399.311 293.31C397.565 298.256 390.483 300.875 385.73 298.353C384.275 297.578 383.791 297.771 383.306 299.323C381.754 304.271 373.896 306.793 369.531 303.689C367.591 302.331 367.203 302.427 364.584 305.144C360.994 308.636 356.727 309.024 351.877 306.017C350.033 304.95 348.288 304.465 347.996 304.95C346.929 306.598 343.243 308.054 340.139 308.054C338.005 308.054 336.162 307.181 334.125 305.144C331.506 302.427 331.118 302.331 329.178 303.689C325.977 305.92 321.321 305.531 317.925 302.622C316.276 301.264 314.918 299.518 314.918 298.741C314.918 297.674 314.531 297.578 313.075 298.353C309.293 300.293 304.248 299.518 301.241 296.511C299.689 294.959 298.428 292.825 298.428 291.854C298.428 290.399 297.749 290.109 294.063 290.399C290.28 290.787 289.31 290.399 286.788 287.877C285.042 286.131 283.877 283.9 283.877 282.445C283.877 280.214 283.49 279.923 280.482 279.923C275.632 279.923 270.976 275.558 270.879 270.901C270.782 267.797 270.491 267.41 267.678 266.828C265.932 266.537 263.507 264.985 262.052 263.239C259.918 260.717 259.529 259.455 259.918 256.449C260.403 252.956 260.209 252.665 257.105 251.307C252.739 249.464 250.315 244.226 251.769 239.86C252.739 237.145 252.546 236.756 249.247 233.847C246.143 231.131 245.561 230.161 245.561 226.668C245.561 224.34 246.241 222.109 247.211 221.139C248.665 219.684 248.471 219.393 245.755 216.871C241.875 213.379 241.487 207.559 244.882 203.97C246.822 201.932 246.919 201.544 245.561 200.38C244.785 199.702 243.622 197.568 243.039 195.531C242.166 192.62 242.263 191.456 243.524 188.934C244.397 187.285 246.046 185.442 247.113 184.86C249.053 183.793 249.053 183.696 247.404 181.756C246.241 180.592 245.561 178.361 245.561 175.936C245.561 172.54 246.143 171.473 249.247 168.854C252.546 165.945 252.836 165.46 251.867 163.034C249.927 157.99 254.195 150.909 259.044 150.909C260.306 150.909 260.403 150.036 260.014 146.737C259.529 143.44 259.821 142.179 261.567 139.947C264.283 136.553 267.775 135.098 271.558 135.971C273.983 136.456 288.631 148.581 321.611 177.293C325.104 180.397 328.499 182.823 329.178 182.92C333.349 183.017 334.61 171.28 331.894 157.118C330.536 150.133 328.693 145.865 326.074 143.633L325.58 143.213C323.826 141.717 318.131 136.864 311.912 131.412C298.234 119.577 268.26 94.938 236.249 69.1354C221.408 57.3011 216.654 53.9059 214.423 53.9059C212.871 53.9059 207.924 55.264 203.365 56.816C198.903 58.4651 194.15 59.7261 192.889 59.7261C186.583 59.7261 169.317 48.2797 170.578 44.9817C171.451 42.8476 175.331 42.3626 196.09 41.6836C208.797 41.1985 216.267 41.3925 220.049 42.1686C224.706 43.1386 230.72 46.6307 255.94 62.8302C336.938 114.727 350.325 123.166 351.974 123.166C356.048 123.36 353.526 120.935 343.631 115.309C331.797 108.519 328.499 105.802 324.91 99.691C322.581 95.8112 322.581 95.423 324.037 93.1922C324.91 91.8339 326.074 90.767 326.462 90.767C326.947 90.767 327.917 89.1181 328.596 87.081C332.573 74.7616 339.072 67.9714 350.033 64.7703C353.914 63.6063 359.831 62.6362 363.032 62.6362C368.852 62.6362 369.24 62.8302 375.836 67.9714C383.403 73.8885 385.052 74.6646 391.745 75.6346C396.789 76.4106 397.953 77.8657 395.722 80.9698C395.332 81.5296 395.041 81.9487 394.93 82.4115C394.597 83.793 395.874 85.5617 400.96 92.6103C402.609 94.8411 402.609 94.938 394.17 102.795C388.544 108.131 385.73 111.525 385.73 112.884C385.73 114.144 387.089 117.734 388.738 121.032L391.745 127.046L415.219 79.9997C428.024 54.197 440.247 30.5282 442.186 27.5211C447.134 19.9549 458.289 13.8437 475.459 9.28454C475.822 9.18431 476.155 9.08973 476.42 9ZM306.964 504L309.875 501.575C313.366 498.665 322.096 481.398 324.134 473.153C325.977 465.974 325.686 462.677 321.709 444.343C318.41 429.405 312.494 391.767 310.942 375.568C309.583 362.085 309.875 360.533 318.799 331.334L324.328 313.098L320.739 312.516C318.799 312.225 315.598 310.867 313.561 309.509C311.62 308.151 308.71 307.084 307.061 307.084C302.987 307.084 298.428 304.95 295.13 301.36C293.481 299.712 291.347 298.353 290.377 298.353C289.31 298.353 286.496 297.189 284.072 295.832L279.706 293.213L280.288 296.996C280.676 299.13 281.161 309.703 281.549 320.665C282.035 338.028 281.84 342.393 280.094 355.1C278.93 363.055 277.96 373.337 277.96 377.896C277.863 387.596 278.057 388.372 291.347 416.503C298.234 431.151 300.465 436.68 299.98 438.523C299.689 439.784 297.555 442.5 295.421 444.537C289.988 449.581 289.31 451.037 290.668 455.013C291.347 457.147 293.384 459.476 296.488 461.706C304.345 467.333 304.636 468.206 303.763 482.465C303.278 489.256 302.89 496.822 302.89 499.344L302.793 504H306.964ZM58.1514 121.808C51.8462 115.891 44.377 109.488 41.5639 107.549C35.6467 103.668 30.6026 102.698 26.1404 104.735C20.5142 107.257 19.3502 112.981 23.4243 118.316C26.5284 122.293 43.698 137.62 50.0032 141.791C53.0103 143.828 61.2555 147.223 72.1198 150.812C95.4976 158.572 179.599 190.389 219.176 206.395C227.131 209.596 233.726 212.021 233.824 211.827C233.921 211.73 234.6 209.208 235.182 206.395C236.055 202.709 236.055 200.09 235.279 196.694C234.406 192.912 234.503 191.359 235.861 187.77C236.831 185.345 237.607 181.077 237.801 178.264L237.995 173.22L231.107 171.183C209.962 164.877 182.412 158.572 121.785 146.156C90.5504 139.851 78.425 136.94 74.6419 135.098C71.9258 133.642 64.5536 127.726 58.1514 121.808Z" stroke="#6A5A72" stroke-width="16" mask="url(#path-1-outside-1_178_15)"/>
</svg>
