<svg width="102" height="87" viewBox="0 0 102 87" fill="none" xmlns="http://www.w3.org/2000/svg">
<mask id="path-1-outside-1_300_54" maskUnits="userSpaceOnUse" x="0" y="0" width="102" height="87" fill="black">
<rect fill="white" width="102" height="87"/>
<path d="M99.6538 82.6838H71.4778C71.1555 79.9155 70.2454 72.5208 69.1456 66.586C68.6907 64.9641 68.8659 63.2302 69.6361 61.7321C70.4062 60.234 71.7144 59.0825 73.2981 58.5086L91.5954 50.5261C91.82 50.4272 92.0112 50.2653 92.1458 50.06C92.2804 49.8548 92.3526 49.6149 92.3538 49.3695V45.9565C92.3528 45.7349 92.2938 45.5175 92.1828 45.3257C92.0717 45.134 91.9125 44.9746 91.7208 44.8634C91.5291 44.7523 91.3117 44.6932 91.0901 44.692C90.8686 44.6908 90.6505 44.7476 90.4577 44.8568C87.9738 46.3168 80.6739 49.8056 76.9006 48.4214C76.4138 48.2469 75.9748 47.9603 75.619 47.5848C75.2633 47.2093 75.0009 46.7555 74.8529 46.2599C72.2931 38.9978 77.4126 28.5314 77.5074 28.3228C81.4702 18.4821 81.7546 11.0494 78.3606 6.27125C74.5116 0.905303 67.4391 1.00011 66.7376 1.00011C66.036 1.00011 58.8878 1.00011 55.0387 6.32814C51.6447 11.1253 51.9291 18.539 55.873 28.3607C56.9537 31.2618 59.6651 39.4529 59.0963 42.5815C58.3568 46.6201 55.2093 57.2383 55.1714 57.3331C55.1155 57.5222 55.1043 57.7217 55.1389 57.9159C55.1735 58.1101 55.2527 58.2936 55.3705 58.4518C55.4882 58.61 55.6412 58.7386 55.8173 58.8275C55.9933 58.9163 56.1877 58.963 56.3849 58.9637H60.3288L65.2397 82.7028H31.6978C31.4323 80.4085 30.7497 75.0047 29.9344 70.6437C29.5886 69.4717 29.7068 68.2117 30.2645 67.1246C30.8222 66.0374 31.7767 65.2064 32.9302 64.8037L46.9234 58.6983C47.148 58.5993 47.3392 58.4375 47.4738 58.2322C47.6084 58.0269 47.6807 57.7871 47.6818 57.5416V54.925C47.6808 54.7035 47.6219 54.486 47.5108 54.2943C47.3998 54.1025 47.2405 53.9431 47.0488 53.832C46.8572 53.7208 46.6397 53.6617 46.4182 53.6605C46.1966 53.6594 45.9786 53.7162 45.7857 53.8253C43.8896 54.925 38.4289 57.6175 35.6796 56.5367C35.3501 56.4196 35.053 56.2264 34.8125 55.9726C34.5719 55.7189 34.3948 55.4119 34.2954 55.0767C32.3993 49.6349 36.1915 41.8041 36.3242 41.5765C39.3959 33.9922 39.6045 28.1901 36.9499 24.5117C35.8455 23.1545 34.4429 22.0704 32.8513 21.3436C31.2596 20.6168 29.5218 20.267 27.7728 20.3213C26.0239 20.267 24.2861 20.6168 22.6944 21.3436C21.1027 22.0704 19.7002 23.1545 18.5958 24.5117C15.9412 28.3039 16.1498 33.9922 19.2025 41.5765C20.3022 44.6103 21.9898 50.1848 21.6105 52.1947C21.0417 55.2663 18.6526 63.3626 18.6147 63.4385C18.5588 63.6276 18.5477 63.8272 18.5822 64.0213C18.6168 64.2155 18.6961 64.399 18.8138 64.5572C18.9315 64.7154 19.0845 64.844 19.2606 64.9329C19.4367 65.0218 19.631 65.0684 19.8282 65.0691H22.5965L26.237 82.627H2.27038C1.93346 82.627 1.61033 82.7608 1.37209 82.999C1.13385 83.2373 1 83.5604 1 83.8973C1 84.2343 1.13385 84.5574 1.37209 84.7956C1.61033 85.0339 1.93346 85.1677 2.27038 85.1677H99.7296C100.067 85.1677 100.39 85.0339 100.628 84.7956C100.866 84.5574 101 84.2343 101 83.8973C101 83.5604 100.866 83.2373 100.628 82.999C100.39 82.7608 100.067 82.627 99.7296 82.627L99.6538 82.6838ZM23.2981 26.6732C23.8294 26.0182 24.4997 25.4896 25.2606 25.1256C26.0214 24.7616 26.8536 24.5713 27.697 24.5686C28.5377 24.5595 29.3694 24.7427 30.1285 25.1042C30.8876 25.4657 31.5541 25.9959 32.077 26.6543C33.2526 28.3228 33.3853 30.9774 32.532 34.4662C32.3374 33.3389 31.7721 32.3088 30.9257 31.5391C30.0794 30.7694 29.0004 30.3042 27.8597 30.2171C26.719 30.13 25.5819 30.4261 24.6285 31.0584C23.6752 31.6907 22.96 32.623 22.5965 33.7077C22.2405 32.5474 22.1191 31.3277 22.2396 30.1199C22.36 28.9121 22.7199 27.7404 23.2981 26.6732ZM27.5453 40.5716C28.8569 40.5711 30.1186 40.0691 31.072 39.1685C30.8006 39.7587 30.3776 40.2665 29.8462 40.6402C29.3147 41.014 28.6938 41.2402 28.0465 41.2961C27.3992 41.352 26.7487 41.2354 26.1611 40.9583C25.5735 40.6812 25.0698 40.2533 24.7012 39.7183C25.5446 40.2765 26.534 40.5733 27.5453 40.5716ZM24.9097 35.3953C24.9097 34.874 25.0643 34.3644 25.3539 33.931C25.6435 33.4976 26.0551 33.1598 26.5367 32.9603C27.0183 32.7608 27.5482 32.7086 28.0595 32.8103C28.5707 32.912 29.0404 33.163 29.4089 33.5316C29.7775 33.9002 30.0285 34.3698 30.1302 34.8811C30.2319 35.3923 30.1797 35.9223 29.9803 36.4038C29.7808 36.8854 29.443 37.2971 29.0096 37.5867C28.5761 37.8763 28.0666 38.0308 27.5453 38.0308C26.8463 38.0308 26.176 37.7532 25.6817 37.2589C25.1874 36.7646 24.9097 36.0943 24.9097 35.3953ZM27.4505 71.1556C28.2089 75.2701 28.8536 80.3327 29.138 82.7597H28.8157L24.8718 63.5712C24.8114 63.2885 24.6564 63.0348 24.4323 62.8521C24.2082 62.6693 23.9285 62.5685 23.6394 62.5663H21.5157C22.2552 59.9876 23.6583 54.9819 24.0944 52.6687C24.7201 49.2557 21.857 41.4817 21.5157 40.5906C18.8233 33.9163 18.5199 28.8348 20.6056 25.8769C20.7954 25.6269 21.0046 25.3924 21.2313 25.1753C19.0508 28.3039 19.3352 33.2527 21.9518 39.7563C22.3906 40.9237 23.1722 41.9311 24.194 42.6461C25.2157 43.3612 26.4299 43.7504 27.677 43.7627C28.9241 43.775 30.1457 43.4098 31.1814 42.7151C32.2171 42.0203 33.0184 41.0286 33.4801 39.87C36.1725 33.2337 36.419 28.2849 34.2385 25.1753C34.4651 25.3925 34.6743 25.627 34.8642 25.8769C36.9499 28.8348 36.6276 33.9353 33.992 40.4958C33.8214 40.856 29.631 49.4264 31.8874 55.8731C32.1118 56.5599 32.4896 57.1866 32.9923 57.7057C33.4949 58.2247 34.1092 58.6225 34.7884 58.8689C36.522 59.3745 38.3639 59.3745 40.0975 58.8689L32.0391 62.4146C30.3161 63.0288 28.8874 64.2691 28.0372 65.8887C27.1869 67.5083 26.9775 69.3886 27.4505 71.1556ZM66.6048 5.87307C67.768 5.86041 68.9185 6.11547 69.9673 6.61851C71.0161 7.12155 71.9352 7.85909 72.6534 8.77409C74.8908 11.9595 74.4357 17.6478 71.3261 25.3649C70.9336 26.3177 70.2648 27.1311 69.4057 27.7002C68.5466 28.2693 67.5368 28.568 66.5064 28.5578C65.476 28.5476 64.4723 28.2289 63.6247 27.6429C62.777 27.057 62.1244 26.2305 61.7509 25.2701C61.7509 25.0426 61.5992 24.834 61.5044 24.6065C62.4676 25.7199 63.7877 26.4642 65.239 26.712C66.6902 26.9598 68.1825 26.6958 69.4607 25.9651C70.7388 25.2344 71.7235 24.0824 72.2462 22.706C72.7689 21.3297 72.7973 19.8145 72.3265 18.4195C71.8557 17.0245 70.915 15.8364 69.6651 15.0583C68.4152 14.2803 66.9339 13.9605 65.4744 14.1538C64.0148 14.347 62.6677 15.0413 61.6635 16.1179C60.6592 17.1944 60.06 18.5864 59.9685 20.0559C58.6223 15.0502 58.755 11.2011 60.4425 8.81202C61.1685 7.87455 62.1041 7.12035 63.1743 6.60995C64.2445 6.09955 65.4195 5.84717 66.6048 5.87307ZM62.5472 20.454C62.5472 19.704 62.7696 18.9708 63.1863 18.3472C63.603 17.7236 64.1953 17.2375 64.8882 16.9505C65.5811 16.6635 66.3436 16.5884 67.0792 16.7347C67.8148 16.881 68.4905 17.2422 69.0209 17.7726C69.5512 18.3029 69.9124 18.9786 70.0587 19.7142C70.205 20.4498 70.13 21.2123 69.8429 21.9052C69.5559 22.5982 69.0699 23.1904 68.4462 23.6071C67.8226 24.0238 67.0894 24.2462 66.3394 24.2462C65.3336 24.2462 64.3691 23.8467 63.6579 23.1355C62.9467 22.4243 62.5472 21.4598 62.5472 20.454ZM67.7615 82.6838L62.5282 57.4279C62.4678 57.1451 62.3128 56.8914 62.0887 56.7087C61.8646 56.526 61.5849 56.4252 61.2958 56.4229H57.9966C58.9257 53.2375 60.9166 46.2599 61.5044 43.0365C62.3007 38.6755 58.5844 28.6072 58.1483 27.4506C54.5267 18.4631 54.1475 11.8647 56.9917 7.82605C58.5087 5.86449 60.6839 4.51763 63.116 4.03386C61.2351 4.62076 59.5973 5.80585 58.4516 7.40891C55.6644 11.3907 56.0057 17.7426 59.4376 26.1802C59.9798 27.6396 60.9528 28.8996 62.2275 29.7933C63.5022 30.6871 65.0184 31.1723 66.5751 31.1846C68.1319 31.1969 69.6556 30.7358 70.9443 29.8624C72.233 28.989 73.2258 27.7445 73.791 26.294C77.2609 17.7426 77.5832 11.3717 74.8149 7.33306C73.6664 5.7206 72.0215 4.52854 70.1316 3.93905C72.5719 4.41529 74.7555 5.76321 76.2749 7.73124C79.138 11.7699 78.7588 18.3873 75.1752 27.28C74.9477 27.754 69.4869 38.8082 72.4448 47.0942C72.7074 47.9468 73.1669 48.7258 73.7861 49.3681C74.4053 50.0103 75.167 50.498 76.0095 50.7915C80.2188 52.3463 86.6276 49.6349 89.813 48.0422V48.5162L72.4069 56.1006C70.2723 56.8845 68.5067 58.436 67.4548 60.4521C66.403 62.4681 66.1405 64.8039 66.7186 67.0031C67.7615 72.6914 68.6147 79.688 68.9939 82.627L67.7615 82.6838Z"/>
</mask>
<path d="M99.6538 82.6838H71.4778C71.1555 79.9155 70.2454 72.5208 69.1456 66.586C68.6907 64.9641 68.8659 63.2302 69.6361 61.7321C70.4062 60.234 71.7144 59.0825 73.2981 58.5086L91.5954 50.5261C91.82 50.4272 92.0112 50.2653 92.1458 50.06C92.2804 49.8548 92.3526 49.6149 92.3538 49.3695V45.9565C92.3528 45.7349 92.2938 45.5175 92.1828 45.3257C92.0717 45.134 91.9125 44.9746 91.7208 44.8634C91.5291 44.7523 91.3117 44.6932 91.0901 44.692C90.8686 44.6908 90.6505 44.7476 90.4577 44.8568C87.9738 46.3168 80.6739 49.8056 76.9006 48.4214C76.4138 48.2469 75.9748 47.9603 75.619 47.5848C75.2633 47.2093 75.0009 46.7555 74.8529 46.2599C72.2931 38.9978 77.4126 28.5314 77.5074 28.3228C81.4702 18.4821 81.7546 11.0494 78.3606 6.27125C74.5116 0.905303 67.4391 1.00011 66.7376 1.00011C66.036 1.00011 58.8878 1.00011 55.0387 6.32814C51.6447 11.1253 51.9291 18.539 55.873 28.3607C56.9537 31.2618 59.6651 39.4529 59.0963 42.5815C58.3568 46.6201 55.2093 57.2383 55.1714 57.3331C55.1155 57.5222 55.1043 57.7217 55.1389 57.9159C55.1735 58.1101 55.2527 58.2936 55.3705 58.4518C55.4882 58.61 55.6412 58.7386 55.8173 58.8275C55.9933 58.9163 56.1877 58.963 56.3849 58.9637H60.3288L65.2397 82.7028H31.6978C31.4323 80.4085 30.7497 75.0047 29.9344 70.6437C29.5886 69.4717 29.7068 68.2117 30.2645 67.1246C30.8222 66.0374 31.7767 65.2064 32.9302 64.8037L46.9234 58.6983C47.148 58.5993 47.3392 58.4375 47.4738 58.2322C47.6084 58.0269 47.6807 57.7871 47.6818 57.5416V54.925C47.6808 54.7035 47.6219 54.486 47.5108 54.2943C47.3998 54.1025 47.2405 53.9431 47.0488 53.832C46.8572 53.7208 46.6397 53.6617 46.4182 53.6605C46.1966 53.6594 45.9786 53.7162 45.7857 53.8253C43.8896 54.925 38.4289 57.6175 35.6796 56.5367C35.3501 56.4196 35.053 56.2264 34.8125 55.9726C34.5719 55.7189 34.3948 55.4119 34.2954 55.0767C32.3993 49.6349 36.1915 41.8041 36.3242 41.5765C39.3959 33.9922 39.6045 28.1901 36.9499 24.5117C35.8455 23.1545 34.4429 22.0704 32.8513 21.3436C31.2596 20.6168 29.5218 20.267 27.7728 20.3213C26.0239 20.267 24.2861 20.6168 22.6944 21.3436C21.1027 22.0704 19.7002 23.1545 18.5958 24.5117C15.9412 28.3039 16.1498 33.9922 19.2025 41.5765C20.3022 44.6103 21.9898 50.1848 21.6105 52.1947C21.0417 55.2663 18.6526 63.3626 18.6147 63.4385C18.5588 63.6276 18.5477 63.8272 18.5822 64.0213C18.6168 64.2155 18.6961 64.399 18.8138 64.5572C18.9315 64.7154 19.0845 64.844 19.2606 64.9329C19.4367 65.0218 19.631 65.0684 19.8282 65.0691H22.5965L26.237 82.627H2.27038C1.93346 82.627 1.61033 82.7608 1.37209 82.999C1.13385 83.2373 1 83.5604 1 83.8973C1 84.2343 1.13385 84.5574 1.37209 84.7956C1.61033 85.0339 1.93346 85.1677 2.27038 85.1677H99.7296C100.067 85.1677 100.39 85.0339 100.628 84.7956C100.866 84.5574 101 84.2343 101 83.8973C101 83.5604 100.866 83.2373 100.628 82.999C100.39 82.7608 100.067 82.627 99.7296 82.627L99.6538 82.6838ZM23.2981 26.6732C23.8294 26.0182 24.4997 25.4896 25.2606 25.1256C26.0214 24.7616 26.8536 24.5713 27.697 24.5686C28.5377 24.5595 29.3694 24.7427 30.1285 25.1042C30.8876 25.4657 31.5541 25.9959 32.077 26.6543C33.2526 28.3228 33.3853 30.9774 32.532 34.4662C32.3374 33.3389 31.7721 32.3088 30.9257 31.5391C30.0794 30.7694 29.0004 30.3042 27.8597 30.2171C26.719 30.13 25.5819 30.4261 24.6285 31.0584C23.6752 31.6907 22.96 32.623 22.5965 33.7077C22.2405 32.5474 22.1191 31.3277 22.2396 30.1199C22.36 28.9121 22.7199 27.7404 23.2981 26.6732ZM27.5453 40.5716C28.8569 40.5711 30.1186 40.0691 31.072 39.1685C30.8006 39.7587 30.3776 40.2665 29.8462 40.6402C29.3147 41.014 28.6938 41.2402 28.0465 41.2961C27.3992 41.352 26.7487 41.2354 26.1611 40.9583C25.5735 40.6812 25.0698 40.2533 24.7012 39.7183C25.5446 40.2765 26.534 40.5733 27.5453 40.5716ZM24.9097 35.3953C24.9097 34.874 25.0643 34.3644 25.3539 33.931C25.6435 33.4976 26.0551 33.1598 26.5367 32.9603C27.0183 32.7608 27.5482 32.7086 28.0595 32.8103C28.5707 32.912 29.0404 33.163 29.4089 33.5316C29.7775 33.9002 30.0285 34.3698 30.1302 34.8811C30.2319 35.3923 30.1797 35.9223 29.9803 36.4038C29.7808 36.8854 29.443 37.2971 29.0096 37.5867C28.5761 37.8763 28.0666 38.0308 27.5453 38.0308C26.8463 38.0308 26.176 37.7532 25.6817 37.2589C25.1874 36.7646 24.9097 36.0943 24.9097 35.3953ZM27.4505 71.1556C28.2089 75.2701 28.8536 80.3327 29.138 82.7597H28.8157L24.8718 63.5712C24.8114 63.2885 24.6564 63.0348 24.4323 62.8521C24.2082 62.6693 23.9285 62.5685 23.6394 62.5663H21.5157C22.2552 59.9876 23.6583 54.9819 24.0944 52.6687C24.7201 49.2557 21.857 41.4817 21.5157 40.5906C18.8233 33.9163 18.5199 28.8348 20.6056 25.8769C20.7954 25.6269 21.0046 25.3924 21.2313 25.1753C19.0508 28.3039 19.3352 33.2527 21.9518 39.7563C22.3906 40.9237 23.1722 41.9311 24.194 42.6461C25.2157 43.3612 26.4299 43.7504 27.677 43.7627C28.9241 43.775 30.1457 43.4098 31.1814 42.7151C32.2171 42.0203 33.0184 41.0286 33.4801 39.87C36.1725 33.2337 36.419 28.2849 34.2385 25.1753C34.4651 25.3925 34.6743 25.627 34.8642 25.8769C36.9499 28.8348 36.6276 33.9353 33.992 40.4958C33.8214 40.856 29.631 49.4264 31.8874 55.8731C32.1118 56.5599 32.4896 57.1866 32.9923 57.7057C33.4949 58.2247 34.1092 58.6225 34.7884 58.8689C36.522 59.3745 38.3639 59.3745 40.0975 58.8689L32.0391 62.4146C30.3161 63.0288 28.8874 64.2691 28.0372 65.8887C27.1869 67.5083 26.9775 69.3886 27.4505 71.1556ZM66.6048 5.87307C67.768 5.86041 68.9185 6.11547 69.9673 6.61851C71.0161 7.12155 71.9352 7.85909 72.6534 8.77409C74.8908 11.9595 74.4357 17.6478 71.3261 25.3649C70.9336 26.3177 70.2648 27.1311 69.4057 27.7002C68.5466 28.2693 67.5368 28.568 66.5064 28.5578C65.476 28.5476 64.4723 28.2289 63.6247 27.6429C62.777 27.057 62.1244 26.2305 61.7509 25.2701C61.7509 25.0426 61.5992 24.834 61.5044 24.6065C62.4676 25.7199 63.7877 26.4642 65.239 26.712C66.6902 26.9598 68.1825 26.6958 69.4607 25.9651C70.7388 25.2344 71.7235 24.0824 72.2462 22.706C72.7689 21.3297 72.7973 19.8145 72.3265 18.4195C71.8557 17.0245 70.915 15.8364 69.6651 15.0583C68.4152 14.2803 66.9339 13.9605 65.4744 14.1538C64.0148 14.347 62.6677 15.0413 61.6635 16.1179C60.6592 17.1944 60.06 18.5864 59.9685 20.0559C58.6223 15.0502 58.755 11.2011 60.4425 8.81202C61.1685 7.87455 62.1041 7.12035 63.1743 6.60995C64.2445 6.09955 65.4195 5.84717 66.6048 5.87307ZM62.5472 20.454C62.5472 19.704 62.7696 18.9708 63.1863 18.3472C63.603 17.7236 64.1953 17.2375 64.8882 16.9505C65.5811 16.6635 66.3436 16.5884 67.0792 16.7347C67.8148 16.881 68.4905 17.2422 69.0209 17.7726C69.5512 18.3029 69.9124 18.9786 70.0587 19.7142C70.205 20.4498 70.13 21.2123 69.8429 21.9052C69.5559 22.5982 69.0699 23.1904 68.4462 23.6071C67.8226 24.0238 67.0894 24.2462 66.3394 24.2462C65.3336 24.2462 64.3691 23.8467 63.6579 23.1355C62.9467 22.4243 62.5472 21.4598 62.5472 20.454ZM67.7615 82.6838L62.5282 57.4279C62.4678 57.1451 62.3128 56.8914 62.0887 56.7087C61.8646 56.526 61.5849 56.4252 61.2958 56.4229H57.9966C58.9257 53.2375 60.9166 46.2599 61.5044 43.0365C62.3007 38.6755 58.5844 28.6072 58.1483 27.4506C54.5267 18.4631 54.1475 11.8647 56.9917 7.82605C58.5087 5.86449 60.6839 4.51763 63.116 4.03386C61.2351 4.62076 59.5973 5.80585 58.4516 7.40891C55.6644 11.3907 56.0057 17.7426 59.4376 26.1802C59.9798 27.6396 60.9528 28.8996 62.2275 29.7933C63.5022 30.6871 65.0184 31.1723 66.5751 31.1846C68.1319 31.1969 69.6556 30.7358 70.9443 29.8624C72.233 28.989 73.2258 27.7445 73.791 26.294C77.2609 17.7426 77.5832 11.3717 74.8149 7.33306C73.6664 5.7206 72.0215 4.52854 70.1316 3.93905C72.5719 4.41529 74.7555 5.76321 76.2749 7.73124C79.138 11.7699 78.7588 18.3873 75.1752 27.28C74.9477 27.754 69.4869 38.8082 72.4448 47.0942C72.7074 47.9468 73.1669 48.7258 73.7861 49.3681C74.4053 50.0103 75.167 50.498 76.0095 50.7915C80.2188 52.3463 86.6276 49.6349 89.813 48.0422V48.5162L72.4069 56.1006C70.2723 56.8845 68.5067 58.436 67.4548 60.4521C66.403 62.4681 66.1405 64.8039 66.7186 67.0031C67.7615 72.6914 68.6147 79.688 68.9939 82.627L67.7615 82.6838Z" fill="white"/>
<path d="M99.6538 82.6838H71.4778C71.1555 79.9155 70.2454 72.5208 69.1456 66.586C68.6907 64.9641 68.8659 63.2302 69.6361 61.7321C70.4062 60.234 71.7144 59.0825 73.2981 58.5086L91.5954 50.5261C91.82 50.4272 92.0112 50.2653 92.1458 50.06C92.2804 49.8548 92.3526 49.6149 92.3538 49.3695V45.9565C92.3528 45.7349 92.2938 45.5175 92.1828 45.3257C92.0717 45.134 91.9125 44.9746 91.7208 44.8634C91.5291 44.7523 91.3117 44.6932 91.0901 44.692C90.8686 44.6908 90.6505 44.7476 90.4577 44.8568C87.9738 46.3168 80.6739 49.8056 76.9006 48.4214C76.4138 48.2469 75.9748 47.9603 75.619 47.5848C75.2633 47.2093 75.0009 46.7555 74.8529 46.2599C72.2931 38.9978 77.4126 28.5314 77.5074 28.3228C81.4702 18.4821 81.7546 11.0494 78.3606 6.27125C74.5116 0.905303 67.4391 1.00011 66.7376 1.00011C66.036 1.00011 58.8878 1.00011 55.0387 6.32814C51.6447 11.1253 51.9291 18.539 55.873 28.3607C56.9537 31.2618 59.6651 39.4529 59.0963 42.5815C58.3568 46.6201 55.2093 57.2383 55.1714 57.3331C55.1155 57.5222 55.1043 57.7217 55.1389 57.9159C55.1735 58.1101 55.2527 58.2936 55.3705 58.4518C55.4882 58.61 55.6412 58.7386 55.8173 58.8275C55.9933 58.9163 56.1877 58.963 56.3849 58.9637H60.3288L65.2397 82.7028H31.6978C31.4323 80.4085 30.7497 75.0047 29.9344 70.6437C29.5886 69.4717 29.7068 68.2117 30.2645 67.1246C30.8222 66.0374 31.7767 65.2064 32.9302 64.8037L46.9234 58.6983C47.148 58.5993 47.3392 58.4375 47.4738 58.2322C47.6084 58.0269 47.6807 57.7871 47.6818 57.5416V54.925C47.6808 54.7035 47.6219 54.486 47.5108 54.2943C47.3998 54.1025 47.2405 53.9431 47.0488 53.832C46.8572 53.7208 46.6397 53.6617 46.4182 53.6605C46.1966 53.6594 45.9786 53.7162 45.7857 53.8253C43.8896 54.925 38.4289 57.6175 35.6796 56.5367C35.3501 56.4196 35.053 56.2264 34.8125 55.9726C34.5719 55.7189 34.3948 55.4119 34.2954 55.0767C32.3993 49.6349 36.1915 41.8041 36.3242 41.5765C39.3959 33.9922 39.6045 28.1901 36.9499 24.5117C35.8455 23.1545 34.4429 22.0704 32.8513 21.3436C31.2596 20.6168 29.5218 20.267 27.7728 20.3213C26.0239 20.267 24.2861 20.6168 22.6944 21.3436C21.1027 22.0704 19.7002 23.1545 18.5958 24.5117C15.9412 28.3039 16.1498 33.9922 19.2025 41.5765C20.3022 44.6103 21.9898 50.1848 21.6105 52.1947C21.0417 55.2663 18.6526 63.3626 18.6147 63.4385C18.5588 63.6276 18.5477 63.8272 18.5822 64.0213C18.6168 64.2155 18.6961 64.399 18.8138 64.5572C18.9315 64.7154 19.0845 64.844 19.2606 64.9329C19.4367 65.0218 19.631 65.0684 19.8282 65.0691H22.5965L26.237 82.627H2.27038C1.93346 82.627 1.61033 82.7608 1.37209 82.999C1.13385 83.2373 1 83.5604 1 83.8973C1 84.2343 1.13385 84.5574 1.37209 84.7956C1.61033 85.0339 1.93346 85.1677 2.27038 85.1677H99.7296C100.067 85.1677 100.39 85.0339 100.628 84.7956C100.866 84.5574 101 84.2343 101 83.8973C101 83.5604 100.866 83.2373 100.628 82.999C100.39 82.7608 100.067 82.627 99.7296 82.627L99.6538 82.6838ZM23.2981 26.6732C23.8294 26.0182 24.4997 25.4896 25.2606 25.1256C26.0214 24.7616 26.8536 24.5713 27.697 24.5686C28.5377 24.5595 29.3694 24.7427 30.1285 25.1042C30.8876 25.4657 31.5541 25.9959 32.077 26.6543C33.2526 28.3228 33.3853 30.9774 32.532 34.4662C32.3374 33.3389 31.7721 32.3088 30.9257 31.5391C30.0794 30.7694 29.0004 30.3042 27.8597 30.2171C26.719 30.13 25.5819 30.4261 24.6285 31.0584C23.6752 31.6907 22.96 32.623 22.5965 33.7077C22.2405 32.5474 22.1191 31.3277 22.2396 30.1199C22.36 28.9121 22.7199 27.7404 23.2981 26.6732ZM27.5453 40.5716C28.8569 40.5711 30.1186 40.0691 31.072 39.1685C30.8006 39.7587 30.3776 40.2665 29.8462 40.6402C29.3147 41.014 28.6938 41.2402 28.0465 41.2961C27.3992 41.352 26.7487 41.2354 26.1611 40.9583C25.5735 40.6812 25.0698 40.2533 24.7012 39.7183C25.5446 40.2765 26.534 40.5733 27.5453 40.5716ZM24.9097 35.3953C24.9097 34.874 25.0643 34.3644 25.3539 33.931C25.6435 33.4976 26.0551 33.1598 26.5367 32.9603C27.0183 32.7608 27.5482 32.7086 28.0595 32.8103C28.5707 32.912 29.0404 33.163 29.4089 33.5316C29.7775 33.9002 30.0285 34.3698 30.1302 34.8811C30.2319 35.3923 30.1797 35.9223 29.9803 36.4038C29.7808 36.8854 29.443 37.2971 29.0096 37.5867C28.5761 37.8763 28.0666 38.0308 27.5453 38.0308C26.8463 38.0308 26.176 37.7532 25.6817 37.2589C25.1874 36.7646 24.9097 36.0943 24.9097 35.3953ZM27.4505 71.1556C28.2089 75.2701 28.8536 80.3327 29.138 82.7597H28.8157L24.8718 63.5712C24.8114 63.2885 24.6564 63.0348 24.4323 62.8521C24.2082 62.6693 23.9285 62.5685 23.6394 62.5663H21.5157C22.2552 59.9876 23.6583 54.9819 24.0944 52.6687C24.7201 49.2557 21.857 41.4817 21.5157 40.5906C18.8233 33.9163 18.5199 28.8348 20.6056 25.8769C20.7954 25.6269 21.0046 25.3924 21.2313 25.1753C19.0508 28.3039 19.3352 33.2527 21.9518 39.7563C22.3906 40.9237 23.1722 41.9311 24.194 42.6461C25.2157 43.3612 26.4299 43.7504 27.677 43.7627C28.9241 43.775 30.1457 43.4098 31.1814 42.7151C32.2171 42.0203 33.0184 41.0286 33.4801 39.87C36.1725 33.2337 36.419 28.2849 34.2385 25.1753C34.4651 25.3925 34.6743 25.627 34.8642 25.8769C36.9499 28.8348 36.6276 33.9353 33.992 40.4958C33.8214 40.856 29.631 49.4264 31.8874 55.8731C32.1118 56.5599 32.4896 57.1866 32.9923 57.7057C33.4949 58.2247 34.1092 58.6225 34.7884 58.8689C36.522 59.3745 38.3639 59.3745 40.0975 58.8689L32.0391 62.4146C30.3161 63.0288 28.8874 64.2691 28.0372 65.8887C27.1869 67.5083 26.9775 69.3886 27.4505 71.1556ZM66.6048 5.87307C67.768 5.86041 68.9185 6.11547 69.9673 6.61851C71.0161 7.12155 71.9352 7.85909 72.6534 8.77409C74.8908 11.9595 74.4357 17.6478 71.3261 25.3649C70.9336 26.3177 70.2648 27.1311 69.4057 27.7002C68.5466 28.2693 67.5368 28.568 66.5064 28.5578C65.476 28.5476 64.4723 28.2289 63.6247 27.6429C62.777 27.057 62.1244 26.2305 61.7509 25.2701C61.7509 25.0426 61.5992 24.834 61.5044 24.6065C62.4676 25.7199 63.7877 26.4642 65.239 26.712C66.6902 26.9598 68.1825 26.6958 69.4607 25.9651C70.7388 25.2344 71.7235 24.0824 72.2462 22.706C72.7689 21.3297 72.7973 19.8145 72.3265 18.4195C71.8557 17.0245 70.915 15.8364 69.6651 15.0583C68.4152 14.2803 66.9339 13.9605 65.4744 14.1538C64.0148 14.347 62.6677 15.0413 61.6635 16.1179C60.6592 17.1944 60.06 18.5864 59.9685 20.0559C58.6223 15.0502 58.755 11.2011 60.4425 8.81202C61.1685 7.87455 62.1041 7.12035 63.1743 6.60995C64.2445 6.09955 65.4195 5.84717 66.6048 5.87307ZM62.5472 20.454C62.5472 19.704 62.7696 18.9708 63.1863 18.3472C63.603 17.7236 64.1953 17.2375 64.8882 16.9505C65.5811 16.6635 66.3436 16.5884 67.0792 16.7347C67.8148 16.881 68.4905 17.2422 69.0209 17.7726C69.5512 18.3029 69.9124 18.9786 70.0587 19.7142C70.205 20.4498 70.13 21.2123 69.8429 21.9052C69.5559 22.5982 69.0699 23.1904 68.4462 23.6071C67.8226 24.0238 67.0894 24.2462 66.3394 24.2462C65.3336 24.2462 64.3691 23.8467 63.6579 23.1355C62.9467 22.4243 62.5472 21.4598 62.5472 20.454ZM67.7615 82.6838L62.5282 57.4279C62.4678 57.1451 62.3128 56.8914 62.0887 56.7087C61.8646 56.526 61.5849 56.4252 61.2958 56.4229H57.9966C58.9257 53.2375 60.9166 46.2599 61.5044 43.0365C62.3007 38.6755 58.5844 28.6072 58.1483 27.4506C54.5267 18.4631 54.1475 11.8647 56.9917 7.82605C58.5087 5.86449 60.6839 4.51763 63.116 4.03386C61.2351 4.62076 59.5973 5.80585 58.4516 7.40891C55.6644 11.3907 56.0057 17.7426 59.4376 26.1802C59.9798 27.6396 60.9528 28.8996 62.2275 29.7933C63.5022 30.6871 65.0184 31.1723 66.5751 31.1846C68.1319 31.1969 69.6556 30.7358 70.9443 29.8624C72.233 28.989 73.2258 27.7445 73.791 26.294C77.2609 17.7426 77.5832 11.3717 74.8149 7.33306C73.6664 5.7206 72.0215 4.52854 70.1316 3.93905C72.5719 4.41529 74.7555 5.76321 76.2749 7.73124C79.138 11.7699 78.7588 18.3873 75.1752 27.28C74.9477 27.754 69.4869 38.8082 72.4448 47.0942C72.7074 47.9468 73.1669 48.7258 73.7861 49.3681C74.4053 50.0103 75.167 50.498 76.0095 50.7915C80.2188 52.3463 86.6276 49.6349 89.813 48.0422V48.5162L72.4069 56.1006C70.2723 56.8845 68.5067 58.436 67.4548 60.4521C66.403 62.4681 66.1405 64.8039 66.7186 67.0031C67.7615 72.6914 68.6147 79.688 68.9939 82.627L67.7615 82.6838Z" stroke="#6A5A72" stroke-width="2" mask="url(#path-1-outside-1_300_54)"/>
</svg>
