<svg width="456" height="109" viewBox="0 0 456 109" fill="none" xmlns="http://www.w3.org/2000/svg">
<path d="M128.591 89.5242H103.575C103.289 87.0663 102.481 80.5008 101.504 75.2315C101.1 73.7915 101.256 72.252 101.94 70.9219C102.623 69.5918 103.785 68.5694 105.191 68.0599L121.436 60.9725C121.636 60.8846 121.806 60.7409 121.925 60.5587C122.045 60.3764 122.109 60.1635 122.11 59.9455V56.9153C122.109 56.7186 122.057 56.5255 121.958 56.3552C121.859 56.185 121.718 56.0435 121.548 55.9448C121.378 55.8461 121.185 55.7936 120.988 55.7926C120.791 55.7915 120.598 55.842 120.426 55.9389C118.221 57.2351 111.74 60.3327 108.389 59.1038C107.957 58.9488 107.567 58.6944 107.252 58.361C106.936 58.0276 106.703 57.6247 106.571 57.1846C104.299 50.7369 108.844 41.4441 108.928 41.259C112.447 32.5217 112.699 25.9225 109.686 21.6802C106.268 16.9159 99.989 17.0001 99.3661 17.0001C98.7432 17.0001 92.3965 17.0001 88.979 21.7307C85.9656 25.9899 86.2181 32.5722 89.7198 41.2926C90.6793 43.8684 93.0867 51.141 92.5817 53.9187C91.9251 57.5045 89.1306 66.932 89.0969 67.0161C89.0472 67.184 89.0373 67.3612 89.068 67.5336C89.0987 67.706 89.1691 67.8689 89.2736 68.0094C89.3782 68.1499 89.514 68.2641 89.6703 68.343C89.8266 68.4219 89.9992 68.4633 90.1743 68.4639H93.6759L98.0361 89.541H68.2555C68.0198 87.504 67.4137 82.7061 66.6898 78.8341C66.3828 77.7936 66.4878 76.6749 66.9829 75.7097C67.4781 74.7444 68.3255 74.0066 69.3497 73.649L81.7738 68.2282C81.9732 68.1404 82.143 67.9967 82.2625 67.8144C82.382 67.6322 82.4461 67.4192 82.4472 67.2013V64.8781C82.4462 64.6814 82.3939 64.4883 82.2953 64.3181C82.1967 64.1478 82.0553 64.0063 81.8851 63.9076C81.715 63.8089 81.5219 63.7565 81.3252 63.7554C81.1285 63.7544 80.9349 63.8048 80.7637 63.9017C79.0802 64.8781 74.2318 67.2687 71.7908 66.3091C71.4983 66.2051 71.2345 66.0335 71.0209 65.8083C70.8073 65.583 70.65 65.3104 70.5618 65.0128C68.8783 60.1812 72.2453 53.2285 72.3631 53.0265C75.0904 46.2926 75.2756 41.1411 72.9187 37.8752C71.9381 36.6702 70.6928 35.7077 69.2796 35.0624C67.8664 34.4171 66.3235 34.1065 64.7707 34.1547C63.2179 34.1065 61.6749 34.4171 60.2617 35.0624C58.8485 35.7077 57.6032 36.6702 56.6226 37.8752C54.2658 41.2421 54.451 46.2926 57.1614 53.0265C58.1378 55.72 59.6361 60.6694 59.2994 62.4539C58.7943 65.1811 56.6732 72.3696 56.6395 72.4369C56.5898 72.6048 56.5799 72.782 56.6106 72.9544C56.6413 73.1268 56.7117 73.2897 56.8162 73.4302C56.9208 73.5706 57.0566 73.6849 57.2129 73.7637C57.3693 73.8426 57.5418 73.8841 57.7169 73.8847H60.1748L63.407 89.4737H42.1279C41.8288 89.4737 41.5419 89.5925 41.3304 89.804C41.1188 90.0156 41 90.3025 41 90.6016C41 90.9008 41.1188 91.1877 41.3304 91.3992C41.5419 91.6107 41.8288 91.7295 42.1279 91.7295H128.659C128.958 91.7295 129.245 91.6107 129.456 91.3992C129.668 91.1877 129.786 90.9008 129.786 90.6016C129.786 90.3025 129.668 90.0156 129.456 89.804C129.245 89.5925 128.958 89.4737 128.659 89.4737L128.591 89.5242ZM60.7977 39.7943C61.2694 39.2128 61.8646 38.7434 62.5401 38.4203C63.2156 38.0971 63.9545 37.9281 64.7033 37.9257C65.4498 37.9177 66.1882 38.0803 66.8622 38.4013C67.5362 38.7222 68.1279 39.193 68.5922 39.7775C69.6359 41.259 69.7537 43.6158 68.9962 46.7134C68.8233 45.7125 68.3214 44.7979 67.57 44.1146C66.8185 43.4312 65.8605 43.0181 64.8478 42.9408C63.835 42.8635 62.8254 43.1264 61.9789 43.6878C61.1325 44.2492 60.4976 45.077 60.1748 46.04C59.8587 45.0098 59.7509 43.9269 59.8579 42.8545C59.9648 41.7822 60.2843 40.7419 60.7977 39.7943ZM64.5687 52.1342C65.7331 52.1338 66.8534 51.6881 67.6999 50.8884C67.4589 51.4125 67.0833 51.8633 66.6115 52.1952C66.1396 52.527 65.5883 52.7279 65.0136 52.7775C64.439 52.8271 63.8614 52.7236 63.3397 52.4775C62.8179 52.2315 62.3707 51.8516 62.0434 51.3766C62.7923 51.8722 63.6707 52.1357 64.5687 52.1342ZM62.2286 47.5383C62.2286 47.0755 62.3659 46.6231 62.623 46.2383C62.8801 45.8535 63.2456 45.5535 63.6732 45.3764C64.1007 45.1993 64.5712 45.153 65.0252 45.2433C65.4791 45.3336 65.896 45.5564 66.2233 45.8837C66.5506 46.2109 66.7734 46.6279 66.8637 47.0818C66.954 47.5357 66.9077 48.0062 66.7306 48.4338C66.5534 48.8614 66.2535 49.2269 65.8687 49.484C65.4839 49.7411 65.0315 49.8784 64.5687 49.8784C63.948 49.8784 63.3528 49.6318 62.914 49.193C62.4752 48.7541 62.2286 48.1589 62.2286 47.5383ZM64.4845 79.2887C65.1579 82.9418 65.7302 87.4367 65.9828 89.5915H65.6966L62.1949 72.5548C62.1413 72.3037 62.0036 72.0785 61.8047 71.9162C61.6057 71.754 61.3574 71.6645 61.1007 71.6625H59.2152C59.8718 69.373 61.1175 64.9286 61.5047 62.8748C62.0603 59.8445 59.5182 52.9423 59.2152 52.1511C56.8247 46.2252 56.5553 41.7135 58.4071 39.0873C58.5757 38.8654 58.7614 38.6571 58.9627 38.4644C57.0267 41.2421 57.2792 45.636 59.6024 51.4103C59.9919 52.4468 60.6859 53.3413 61.5931 53.9761C62.5003 54.611 63.5783 54.9566 64.6856 54.9675C65.7928 54.9784 66.8774 54.6542 67.797 54.0373C68.7165 53.4205 69.428 52.5399 69.8379 51.5113C72.2285 45.6192 72.4473 41.2253 70.5113 38.4644C70.7125 38.6572 70.8982 38.8655 71.0669 39.0873C72.9187 41.7135 72.6325 46.2421 70.2925 52.0669C70.1409 52.3867 66.4205 59.996 68.4238 65.7199C68.6231 66.3297 68.9585 66.8861 69.4048 67.3469C69.8511 67.8078 70.3964 68.161 70.9995 68.3797C72.5387 68.8287 74.1741 68.8287 75.7133 68.3797L68.5585 71.5278C67.0287 72.0732 65.7602 73.1744 65.0053 74.6124C64.2505 76.0503 64.0645 77.7198 64.4845 79.2887ZM99.2482 21.3266C100.281 21.3154 101.302 21.5418 102.234 21.9885C103.165 22.4351 103.981 23.0899 104.619 23.9023C106.605 26.7306 106.201 31.781 103.44 38.6327C103.092 39.4787 102.498 40.2009 101.735 40.7061C100.972 41.2114 100.076 41.4766 99.1608 41.4676C98.246 41.4585 97.3548 41.1756 96.6022 40.6553C95.8496 40.135 95.2702 39.4013 94.9385 38.5486C94.9385 38.3466 94.8039 38.1614 94.7197 37.9594C95.5749 38.9479 96.747 39.6087 98.0355 39.8288C99.3241 40.0488 100.649 39.8144 101.784 39.1656C102.919 38.5168 103.793 37.494 104.257 36.272C104.721 35.05 104.746 33.7047 104.328 32.4662C103.91 31.2276 103.075 30.1727 101.965 29.4819C100.856 28.7911 99.5404 28.5072 98.2445 28.6788C96.9486 28.8503 95.7526 29.4668 94.8609 30.4226C93.9693 31.3785 93.4373 32.6144 93.3561 33.919C92.1608 29.4746 92.2786 26.0572 93.7769 23.936C94.4215 23.1037 95.2522 22.434 96.2024 21.9809C97.1526 21.5277 98.1958 21.3036 99.2482 21.3266ZM95.6456 34.2725C95.6456 33.6066 95.8431 32.9557 96.213 32.402C96.583 31.8483 97.1088 31.4167 97.7241 31.1619C98.3393 30.9071 99.0163 30.8404 99.6694 30.9703C100.323 31.1002 100.922 31.4209 101.393 31.8918C101.864 32.3626 102.185 32.9626 102.315 33.6157C102.445 34.2688 102.378 34.9458 102.123 35.561C101.868 36.1763 101.437 36.7021 100.883 37.0721C100.329 37.442 99.6785 37.6395 99.0125 37.6395C98.1196 37.6395 97.2632 37.2848 96.6317 36.6533C96.0003 36.0219 95.6456 35.1655 95.6456 34.2725ZM100.275 89.5242L95.6288 67.1003C95.5751 66.8493 95.4375 66.624 95.2385 66.4618C95.0396 66.2996 94.7912 66.2101 94.5345 66.2081H91.6053C92.4302 63.3798 94.1978 57.1846 94.7197 54.3227C95.4267 50.4507 92.1271 41.5115 91.7399 40.4846C88.5245 32.5049 88.1878 26.6464 90.713 23.0606C92.06 21.319 93.9912 20.1232 96.1506 19.6937C94.4806 20.2147 93.0265 21.2669 92.0093 22.6902C89.5346 26.2255 89.8376 31.8652 92.8847 39.3566C93.3661 40.6523 94.23 41.7711 95.3617 42.5646C96.4935 43.3581 97.8397 43.7889 99.2218 43.7998C100.604 43.8108 101.957 43.4014 103.101 42.6259C104.245 41.8505 105.127 40.7455 105.629 39.4577C108.709 31.8652 108.996 26.2087 106.538 22.6229C105.518 21.1913 104.057 20.1329 102.379 19.6095C104.546 20.0323 106.485 21.2291 107.834 22.9764C110.376 26.5622 110.039 32.4376 106.858 40.3331C106.656 40.7539 101.807 50.5686 104.433 57.9254C104.666 58.6824 105.074 59.374 105.624 59.9443C106.174 60.5146 106.85 60.9475 107.598 61.2081C111.336 62.5886 117.026 60.1812 119.854 58.7671V59.188L104.4 65.9219C102.504 66.6179 100.937 67.9954 100.003 69.7854C99.069 71.5754 98.8359 73.6492 99.3492 75.6018C100.275 80.6523 101.033 86.8643 101.369 89.4737L100.275 89.5242Z" fill="white"/>
<path d="M147.57 91.5095H134.803V90.1822C136.815 90.0608 138.005 89.8625 138.372 89.5873C138.739 89.312 138.922 88.5337 138.922 87.2522V64.0922C138.922 62.8108 138.739 62.0324 138.372 61.7572C138.005 61.4819 136.815 61.2836 134.803 61.1623V59.8349H147.57V61.1623C145.587 61.3162 144.405 61.5219 144.023 61.7794C143.644 62.0398 143.455 62.8108 143.455 64.0922V87.2522C143.455 88.5337 143.644 89.3046 144.023 89.5651C144.405 89.8226 145.587 90.0283 147.57 90.1822V91.5095Z" fill="white"/>
<path d="M150.029 80.7531C150.029 76.9087 151.083 73.8884 153.19 71.6925C155.232 69.5853 158.054 68.5317 161.656 68.5317C163.668 68.5317 165.361 68.8986 166.734 69.6326V62.1257C166.734 61.2704 166.643 60.7214 166.459 60.4787C166.279 60.2331 165.882 60.0807 165.269 60.0215L163.534 59.835V58.6941L170.717 57.5488L171.036 57.824V87.5275C171.036 88.6877 171.197 89.3891 171.52 89.6318C171.84 89.8774 172.824 90.0609 174.472 90.1822V91.5096H167.054L166.69 91.19V88.9437C164.157 91.0213 161.792 92.0601 159.596 92.0601C156.607 92.0601 154.264 91.0301 152.569 88.9703C150.876 86.9105 150.029 84.1714 150.029 80.7531ZM154.788 80.2026C154.788 82.9491 155.339 85.1998 156.44 86.9548C157.538 88.7099 159.093 89.5874 161.105 89.5874C163.79 89.5874 165.56 88.4879 166.415 86.2889C166.628 85.6793 166.734 84.8255 166.734 83.7275V75.6745C166.734 74.4818 166.598 73.5969 166.326 73.0198C165.471 71.0961 163.899 70.1342 161.612 70.1342C159.353 70.1342 157.652 71.0414 156.506 72.8556C155.361 74.6727 154.788 77.1217 154.788 80.2026Z" fill="white"/>
<path d="M177.424 85.5565C177.424 82.7804 178.841 80.9662 181.677 80.1139C182.135 79.96 182.861 79.738 183.852 79.448C184.843 79.1579 185.622 78.9212 186.187 78.7377C186.752 78.5542 187.4 78.3337 188.131 78.0762C188.865 77.8158 189.453 77.5642 189.894 77.3215C190.335 77.0759 190.663 76.8465 190.879 76.6334V74.7112C190.879 73.0627 190.498 71.8878 189.734 71.1864C188.971 70.485 188.055 70.1343 186.986 70.1343C184.728 70.1343 183.156 71.6288 182.272 74.618C182.029 75.4733 181.541 75.901 180.807 75.901C180.259 75.901 179.695 75.7101 179.115 75.3283C178.535 74.9465 178.245 74.4212 178.245 73.7523C178.245 72.4383 179.161 71.2397 180.993 70.1565C182.822 69.0733 184.988 68.5317 187.492 68.5317C189.138 68.5317 190.495 68.7152 191.563 69.0822C192.631 69.4491 193.395 69.9597 193.854 70.6137C194.31 71.2707 194.614 71.8967 194.768 72.4916C194.922 73.0864 194.999 73.7952 194.999 74.618V85.6941C194.999 88.0765 195.532 89.3891 196.597 89.6318C197.239 89.8153 198.018 89.8005 198.932 89.5874L199.208 90.6839C197.376 91.6014 195.576 92.0601 193.809 92.0601C193.046 92.0601 192.449 91.8307 192.02 91.372C191.594 90.9133 191.198 90.2266 190.831 89.3121C188.055 91.1441 185.782 92.0601 184.012 92.0601C181.967 92.0601 180.357 91.4341 179.182 90.1823C178.01 88.9304 177.424 87.3884 177.424 85.5565ZM182.045 84.9172C182.045 86.32 182.403 87.4565 183.119 88.3266C183.836 89.1967 184.88 89.6318 186.254 89.6318C187.414 89.6318 188.475 89.2663 189.437 88.5353C190.398 87.8013 190.879 86.6101 190.879 84.9616V78.5113C190.299 78.8753 188.544 79.6078 185.614 80.7087C184.333 81.1971 183.417 81.7535 182.866 82.3779C182.319 83.0024 182.045 83.8488 182.045 84.9172Z" fill="white"/>
<path d="M211.724 91.5096H200.555V90.1823C202.203 90.0609 203.187 89.8774 203.507 89.6318C203.829 89.3891 203.991 88.6877 203.991 87.5275V73.1086C203.991 72.3155 203.899 71.7975 203.715 71.5549C203.532 71.3092 203.135 71.1405 202.526 71.0488L200.786 70.8224V69.677L207.604 68.5317L208.244 72.0121C208.368 71.9204 208.75 71.6688 209.389 71.2574C210.031 70.8431 210.428 70.59 210.579 70.4983C210.733 70.4095 211.076 70.2112 211.609 69.9034C212.144 69.5986 212.541 69.4003 212.798 69.3086C213.059 69.2198 213.426 69.091 213.899 68.9223C214.373 68.7536 214.823 68.6471 215.249 68.6027C215.675 68.5554 216.117 68.5317 216.576 68.5317C218.68 68.5317 220.327 69.1724 221.517 70.4539C222.707 71.7354 223.302 73.52 223.302 75.8077V87.5275C223.302 88.6877 223.463 89.3891 223.786 89.6318C224.105 89.8774 225.089 90.0609 226.738 90.1823V91.5096H215.568V90.1823C217.217 90.0609 218.201 89.8774 218.521 89.6318C218.84 89.3891 219 88.6877 219 87.5275V76.7267C219 72.9118 217.399 71.0044 214.197 71.0044C213.037 71.0044 211.968 71.3166 210.992 71.9411C210.015 72.5685 209.268 73.3543 208.75 74.2984C208.445 74.908 208.292 75.7471 208.292 76.8155V87.5275C208.292 88.6877 208.452 89.3891 208.772 89.6318C209.092 89.8774 210.076 90.0609 211.724 90.1823V91.5096Z" fill="white"/>
<path d="M229.688 80.5223C229.688 78.9064 229.886 77.4192 230.282 76.0608C230.679 74.7023 231.289 73.4445 232.111 72.2873C232.934 71.1272 234.085 70.2112 235.565 69.5394C237.045 68.8676 238.793 68.5317 240.808 68.5317C243.158 68.5317 245.073 68.9889 246.552 69.9034C248.032 70.8209 248.772 71.8434 248.772 72.971C248.772 73.7346 248.475 74.3146 247.88 74.7112C247.285 75.1078 246.683 75.3061 246.073 75.3061C245.431 75.3061 244.957 74.9095 244.652 74.1163C243.676 71.4616 242.226 70.1343 240.302 70.1343C238.594 70.1343 237.191 70.92 236.093 72.4916C234.995 74.0631 234.446 76.4662 234.446 79.701C234.446 80.8908 234.546 82.0272 234.744 83.1104C234.942 84.1936 235.278 85.2531 235.752 86.289C236.222 87.3278 236.924 88.152 237.856 88.7617C238.785 89.3713 239.891 89.6762 241.172 89.6762C242.791 89.6762 244.111 89.2796 245.132 88.4864C246.156 87.6933 247.033 86.4739 247.764 84.8284L249.092 85.4677C248.695 86.9919 247.978 88.2733 246.939 89.3121C245.903 90.348 244.829 91.0642 243.716 91.4608C242.6 91.8603 241.462 92.0601 240.302 92.0601C236.854 92.0601 234.223 91.0834 232.409 89.1301C230.595 87.1768 229.688 84.3076 229.688 80.5223Z" fill="white"/>
<path d="M252.389 80.4779C252.389 76.8761 253.281 73.9846 255.066 71.8035C256.853 69.6223 259.471 68.5317 262.919 68.5317C264.505 68.5317 265.893 68.7684 267.083 69.242C268.273 69.7155 269.18 70.2882 269.804 70.96C270.432 71.6288 270.935 72.422 271.314 73.3395C271.695 74.254 271.932 75.0471 272.024 75.7189C272.116 76.3908 272.161 77.0611 272.161 77.73C272.161 78.8901 271.552 79.4702 270.332 79.4702H257.152C257.028 86.3067 259.27 89.725 263.878 89.725C265.526 89.725 266.861 89.2973 267.882 88.442C268.906 87.5867 269.783 86.397 270.514 84.8728L271.886 85.6053C270.421 89.9085 267.447 92.0601 262.963 92.0601C255.913 92.0601 252.389 88.1994 252.389 80.4779ZM257.196 77.73H265.844C266.457 77.73 266.87 77.6086 267.083 77.3659C267.296 77.1232 267.402 76.7577 267.402 76.2694C267.402 75.8403 267.38 75.3978 267.336 74.9421C267.289 74.4833 267.166 73.9491 266.967 73.3395C266.769 72.7298 266.503 72.203 266.168 71.7591C265.831 71.3181 265.357 70.9363 264.748 70.6137C264.138 70.2941 263.437 70.1343 262.644 70.1343C261.546 70.1343 260.6 70.4317 259.807 71.0266C259.011 71.6214 258.445 72.3687 258.111 73.2684C257.777 74.1681 257.54 74.985 257.401 75.7189C257.265 76.4499 257.196 77.1203 257.196 77.73Z" fill="white"/>
<path d="M286.703 89.4498L286.246 82.1249H287.711C288.291 84.75 289.29 86.8172 290.708 88.3266C292.125 89.8389 293.888 90.5951 295.995 90.5951C298.037 90.5951 299.645 90.0298 300.82 88.8993C301.995 87.7717 302.583 86.2312 302.583 84.2779C302.583 83.0261 302.164 81.8733 301.326 80.8197C300.486 79.7691 299.654 79.0144 298.832 78.5557C298.009 78.0969 297.139 77.6855 296.221 77.3215L295.4 77.0019C292.683 76.0548 290.563 74.871 289.038 73.4504C287.511 72.0328 286.748 70.2097 286.748 67.9812C286.748 65.1134 287.755 62.9248 289.771 61.4154C291.783 59.9061 294.284 59.1514 297.273 59.1514C300.783 59.1514 303.377 59.8217 305.055 61.1624V67.6172H303.635C302.904 63.0387 300.616 60.7495 296.772 60.7495C294.91 60.7495 293.469 61.2837 292.448 62.3521C291.424 63.4205 290.912 64.8248 290.912 66.565C290.912 67.8465 291.431 68.9904 292.47 69.9966C293.506 71.0029 294.863 71.8123 296.541 72.4249L298.006 72.971C300.965 74.069 303.209 75.3667 304.736 76.8643C306.26 78.3588 307.022 80.3728 307.022 82.9062C307.022 85.4988 306.084 87.6947 304.208 89.4941C302.331 91.2936 299.502 92.1933 295.72 92.1933C294.012 92.1933 292.318 91.958 290.637 91.4874C288.959 91.0139 287.647 90.3347 286.703 89.4498Z" fill="white"/>
<path d="M312.327 70.9112H309.033V69.0822H312.514L315.306 63.3155H316.633V69.0822H322.538V70.9112H316.633V85.0993C316.633 88.1506 317.64 89.6762 319.652 89.6762C320.871 89.6762 321.955 89.4779 322.902 89.0814L323.266 90.0447C321.099 91.3883 319.147 92.0601 317.41 92.0601C316.892 92.0601 316.389 91.998 315.901 91.8737C315.413 91.7523 314.878 91.5319 314.298 91.2122C313.718 90.8926 313.245 90.3584 312.878 89.6096C312.511 88.8609 312.327 87.9375 312.327 86.8395V70.9112Z" fill="white"/>
<path d="M326.303 71.0487L324.562 70.8222V69.6769L331.75 68.5316L332.069 68.8068V84.3666C332.069 86.0772 332.49 87.375 333.33 88.2599C334.168 89.1448 335.288 89.5873 336.691 89.5873C337.88 89.5873 338.987 89.2736 340.011 88.6461C341.032 88.0217 341.802 87.1915 342.32 86.1557C342.565 85.6673 342.688 84.7514 342.688 83.4077V73.1085C342.688 72.3153 342.597 71.7974 342.413 71.5547C342.23 71.3091 341.833 71.1404 341.223 71.0487L339.483 70.8222V69.6769L346.67 68.5316L346.99 68.8068V87.5274C346.99 88.6876 347.157 89.389 347.492 89.6317C347.829 89.8773 348.806 90.0608 350.422 90.1821V91.5095H343.101L342.644 88.7615C342.611 88.7911 342.046 89.1419 340.948 89.8137C339.85 90.4855 338.752 91.0271 337.654 91.4385C336.556 91.8528 335.427 92.06 334.267 92.06C332.343 92.06 330.779 91.5258 329.574 90.4574C328.37 89.389 327.768 87.634 327.768 85.1923V73.1085C327.768 72.3153 327.676 71.7974 327.492 71.5547C327.309 71.3091 326.912 71.1404 326.303 71.0487Z" fill="white"/>
<path d="M353.354 80.7531C353.354 76.9087 354.407 73.8884 356.514 71.6925C358.556 69.5853 361.378 68.5317 364.98 68.5317C366.993 68.5317 368.685 68.8986 370.059 69.6326V62.1257C370.059 61.2704 369.967 60.7214 369.783 60.4787C369.603 60.2331 369.206 60.0807 368.594 60.0215L366.858 59.835V58.6941L374.041 57.5488L374.36 57.824V87.5275C374.36 88.6877 374.522 89.3891 374.844 89.6318C375.164 89.8774 376.148 90.0609 377.796 90.1822V91.5096H370.378L370.014 91.19V88.9437C367.481 91.0213 365.116 92.0601 362.92 92.0601C359.931 92.0601 357.589 91.0301 355.893 88.9703C354.2 86.9105 353.354 84.1714 353.354 80.7531ZM358.112 80.2026C358.112 82.9491 358.663 85.1998 359.764 86.9548C360.862 88.7099 362.417 89.5874 364.43 89.5874C367.114 89.5874 368.884 88.4879 369.739 86.2889C369.952 85.6793 370.059 84.8255 370.059 83.7275V75.6745C370.059 74.4818 369.923 73.5969 369.65 73.0198C368.795 71.0961 367.223 70.1342 364.936 70.1342C362.678 70.1342 360.976 71.0414 359.83 72.8556C358.685 74.6727 358.112 77.1217 358.112 80.2026Z" fill="white"/>
<path d="M383.466 63.5907C382.948 63.0698 382.689 62.398 382.689 61.5752C382.689 60.7525 382.948 60.0807 383.466 59.5598C383.984 59.0419 384.656 58.7829 385.482 58.7829C386.304 58.7829 386.975 59.0419 387.493 59.5598C388.014 60.0807 388.274 60.7525 388.274 61.5752C388.274 62.398 388.014 63.0698 387.493 63.5907C386.975 64.1086 386.304 64.3676 385.482 64.3676C384.656 64.3676 383.984 64.1086 383.466 63.5907ZM391.111 91.5096H379.941V90.1822C381.59 90.0609 382.574 89.8774 382.894 89.6318C383.216 89.3891 383.377 88.6877 383.377 87.5275V73.1086C383.377 72.3154 383.286 71.7975 383.102 71.5548C382.919 71.3092 382.522 71.1405 381.912 71.0487L380.172 70.8223V69.677L387.355 68.5317L387.679 68.8069V87.5275C387.679 88.6877 387.839 89.3891 388.159 89.6318C388.478 89.8774 389.462 90.0609 391.111 90.1822V91.5096Z" fill="white"/>
<path d="M396.799 88.9924C394.953 86.9473 394.029 84.0485 394.029 80.2958C394.029 76.5431 394.953 73.6442 396.799 71.5991C398.643 69.5541 401.381 68.5316 405.012 68.5316C408.644 68.5316 411.383 69.5541 413.229 71.5991C415.076 73.6442 416 76.5431 416 80.2958C416 84.0485 415.076 86.9473 413.229 88.9924C411.383 91.0374 408.644 92.06 405.012 92.06C401.381 92.06 398.643 91.0374 396.799 88.9924ZM400.346 72.7889C399.308 74.5587 398.788 77.061 398.788 80.2958C398.788 83.5305 399.308 86.0328 400.346 87.8027C401.382 89.5725 402.938 90.4574 405.012 90.4574C407.087 90.4574 408.644 89.5725 409.682 87.8027C410.718 86.0328 411.236 83.5305 411.236 80.2958C411.236 77.061 410.718 74.5587 409.682 72.7889C408.644 71.0191 407.087 70.1342 405.012 70.1342C402.938 70.1342 401.382 71.0191 400.346 72.7889Z" fill="white"/>
</svg>
