<svg width="956" height="528" viewBox="0 0 956 528" fill="none" xmlns="http://www.w3.org/2000/svg">
<path fill-rule="evenodd" clip-rule="evenodd" d="M485.052 0H499.18C500.515 2.45803 500.198 9.50454 498.389 13.2174C495.392 19.5195 492.913 20.4494 478.656 20.1395C466.465 19.8295 466.051 19.9328 464.501 22.2057C460.989 27.7847 420.386 123.97 414.394 141.017L411.295 150.109L413.257 161.164C415.737 174.698 415.84 179.243 413.567 183.893C411.811 187.613 401.169 197.22 378.854 215.198L366.766 224.909L369.762 228.111C376.994 235.757 415.84 281.112 417.493 283.901C420.489 288.654 420.076 293.304 416.357 297.022C413.671 299.709 412.637 300.019 408.712 299.709C404.372 299.399 404.166 299.605 402.926 302.808C401.066 308.077 393.524 310.866 388.462 308.18C386.912 307.354 386.396 307.56 385.879 309.213C384.226 314.483 375.857 317.169 371.208 313.863C369.142 312.416 368.728 312.519 365.939 315.413C362.116 319.131 357.571 319.545 352.405 316.342C350.442 315.206 348.583 314.689 348.272 315.206C347.136 316.962 343.21 318.512 339.904 318.512C337.631 318.512 335.668 317.582 333.499 315.413C330.709 312.519 330.296 312.416 328.23 313.863C324.82 316.239 319.861 315.825 316.245 312.727C314.489 311.28 313.042 309.42 313.042 308.593C313.042 307.457 312.629 307.354 311.079 308.18C307.05 310.247 301.678 309.42 298.475 306.217C296.822 304.564 295.479 302.292 295.479 301.258C295.479 299.709 294.755 299.399 290.83 299.709C286.801 300.122 285.767 299.709 283.081 297.022C281.222 295.163 279.981 292.787 279.981 291.237C279.981 288.86 279.569 288.551 276.366 288.551C271.199 288.551 266.24 283.901 266.137 278.942C266.034 275.636 265.725 275.223 262.728 274.604C260.869 274.293 258.286 272.64 256.736 270.781C254.463 268.095 254.049 266.751 254.463 263.549C254.979 259.829 254.773 259.519 251.467 258.073C246.817 256.11 244.235 250.531 245.784 245.881C246.817 242.989 246.611 242.575 243.098 239.476C239.792 236.584 239.172 235.551 239.172 231.831C239.172 229.351 239.896 226.975 240.929 225.942C242.478 224.392 242.272 224.082 239.379 221.396C235.246 217.677 234.833 211.478 238.449 207.655C240.516 205.486 240.619 205.072 239.172 203.833C238.346 203.11 237.106 200.837 236.486 198.667C235.557 195.567 235.66 194.328 237.002 191.642C237.933 189.885 239.689 187.922 240.825 187.302C242.892 186.166 242.892 186.063 241.135 183.996C239.896 182.757 239.172 180.381 239.172 177.798C239.172 174.181 239.792 173.045 243.098 170.255C246.611 167.156 246.921 166.64 245.888 164.057C243.822 158.684 248.367 151.143 253.533 151.143C254.876 151.143 254.979 150.213 254.566 146.699C254.049 143.187 254.36 141.844 256.219 139.467C259.112 135.852 262.831 134.302 266.861 135.232C269.443 135.749 285.044 148.663 320.171 179.243C323.89 182.549 327.507 185.133 328.23 185.236C332.672 185.34 334.015 172.838 331.122 157.755C329.676 150.316 327.713 145.77 324.923 143.393L324.398 142.945C322.529 141.352 316.463 136.183 309.84 130.376C295.272 117.772 263.348 91.5295 229.254 64.0481C213.447 51.4438 208.384 47.8278 206.008 47.8278C204.355 47.8278 199.087 49.2741 194.231 50.9272C189.478 52.6835 184.416 54.0266 183.073 54.0266C176.357 54.0266 157.967 41.8355 159.31 38.3229C160.24 36.0499 164.373 35.5333 186.482 34.8101C200.016 34.2935 207.972 34.5002 212.001 35.3267C216.96 36.3598 223.366 40.0791 250.227 57.3326C336.495 112.606 350.752 121.594 352.508 121.594C356.848 121.801 354.161 119.218 343.623 113.226C331.019 105.994 327.507 103.101 323.684 96.5918C321.204 92.4596 321.204 92.0462 322.754 89.6702C323.684 88.2235 324.923 87.0872 325.337 87.0872C325.854 87.0872 326.887 85.331 327.61 83.1613C331.846 70.0404 338.768 62.8084 350.442 59.399C354.575 58.1593 360.877 57.1261 364.286 57.1261C370.485 57.1261 370.898 57.3326 377.924 62.8084C385.983 69.1105 387.739 69.937 394.867 70.9702C400.24 71.7967 401.48 73.3464 399.104 76.6525C398.688 77.2487 398.378 77.6951 398.26 78.188C397.906 79.6594 399.265 81.5432 404.683 89.0504C406.439 91.4264 406.439 91.5295 397.451 99.8978C391.458 105.581 388.462 109.196 388.462 110.643C388.462 111.986 389.908 115.808 391.665 119.322L394.867 125.727L419.869 75.6193C433.507 48.1377 446.525 22.9289 448.591 19.7262C453.86 11.6677 465.742 5.15884 484.028 0.303056C484.415 0.196297 484.77 0.0955656 485.052 0ZM304.57 527.207L307.67 524.624C311.389 521.525 320.687 503.135 322.857 494.353C324.82 486.708 324.51 483.195 320.275 463.669C316.761 447.759 310.46 407.672 308.807 390.419C307.36 376.058 307.67 374.405 317.175 343.307L323.064 323.884L319.241 323.264C317.175 322.954 313.766 321.508 311.596 320.062C309.53 318.615 306.43 317.478 304.674 317.478C300.334 317.478 295.479 315.206 291.966 311.383C290.21 309.627 287.937 308.18 286.904 308.18C285.767 308.18 282.771 306.94 280.188 305.495L275.539 302.705L276.159 306.734C276.572 309.007 277.089 320.268 277.502 331.943C278.019 350.436 277.812 355.086 275.952 368.619C274.713 377.092 273.679 388.042 273.679 392.898C273.576 403.23 273.783 404.056 287.937 434.018C295.272 449.618 297.648 455.507 297.132 457.47C296.822 458.813 294.549 461.706 292.276 463.875C286.49 469.248 285.767 470.798 287.214 475.033C287.937 477.306 290.107 479.786 293.413 482.162C301.781 488.154 302.091 489.084 301.161 504.271C300.645 511.504 300.231 519.562 300.231 522.248L300.128 527.207H304.57ZM39.5686 120.148C32.8532 113.846 24.898 107.027 21.9019 104.961C15.5997 100.828 10.2274 99.7947 5.47486 101.964C-0.517389 104.651 -1.75717 110.746 2.58205 116.428C5.88812 120.664 24.1748 136.988 30.8903 141.431C34.093 143.601 42.8747 147.216 54.4459 151.039C79.3448 159.304 168.919 193.191 211.071 210.238C219.543 213.648 226.568 216.231 226.672 216.024C226.775 215.92 227.498 213.234 228.117 210.238C229.048 206.313 229.048 203.523 228.221 199.907C227.291 195.878 227.395 194.225 228.841 190.402C229.874 187.819 230.701 183.273 230.907 180.277L231.114 174.905L223.778 172.735C201.256 166.019 171.914 159.304 107.343 146.08C74.0757 139.364 61.1614 136.265 57.1321 134.302C54.2393 132.752 46.3874 126.45 39.5686 120.148Z" fill="#E7E1EA"/>
<path d="M455.041 188.6H435.411V173H492.351V188.6H472.721V264H455.041V188.6ZM520.162 233.97H506.252C504.432 236.223 503.522 239.04 503.522 242.42C503.522 245.8 504.476 248.443 506.382 250.35H520.162V233.97ZM492.212 197.57H524.452C529.652 200.69 533.076 204.287 534.722 208.36C536.369 212.347 537.192 217.807 537.192 224.74V244.24C537.192 251.433 537.366 258.02 537.712 264H522.892L520.552 259.32C517.172 262.44 512.406 264 506.252 264H498.062C490.696 259.147 487.012 252.17 487.012 243.07C487.012 233.883 490.782 226.647 498.322 221.36H510.542C513.922 221.36 517.086 222.4 520.032 224.48V217.98C520.032 214.6 518.559 212.347 515.612 211.22H492.212V197.57ZM577.233 197.57H591.013C594.827 202.423 597.427 207.277 598.813 212.13C600.2 216.983 600.893 223.05 600.893 230.33V264H583.603V229.03C583.603 220.797 582.477 214.86 580.223 211.22H565.663V264H548.373V197.57H561.893L564.233 202.25C566.14 200.517 567.917 199.303 569.563 198.61C571.297 197.917 573.853 197.57 577.233 197.57ZM654.511 207.58L629.421 250.35H654.251V264H608.491V253.99L633.971 211.22H610.051V197.57H654.511V207.58ZM668.496 197.57H697.226V211.22H676.946L689.296 229.55C694.843 237.437 697.92 242.853 698.526 245.8C698.873 247.187 699.046 248.617 699.046 250.09C699.046 256.243 696.75 260.88 692.156 264H659.006V250.35H682.796L668.886 229.94C668.28 228.987 667.326 227.643 666.026 225.91C664.813 224.177 663.86 222.79 663.166 221.75C662.473 220.623 661.996 219.8 661.736 219.28C661.476 218.76 661.13 218.11 660.696 217.33C660.263 216.463 659.96 215.727 659.786 215.12C659.44 213.473 659.266 212.13 659.266 211.09C659.266 204.763 662.343 200.257 668.496 197.57ZM711.345 235.01V211.22H702.375V197.57H711.345V179.5H728.635V197.57H739.295V211.22H728.635V239.17C728.635 244.457 729.545 248.183 731.365 250.35H739.295V264H720.835C716.242 259.753 713.469 255.16 712.515 250.22C711.735 246.06 711.345 240.99 711.345 235.01ZM770.954 264H757.304C753.49 259.147 750.89 254.293 749.504 249.44C748.117 244.587 747.424 238.52 747.424 231.24V197.57H764.714V232.54C764.714 240.427 766.274 246.363 769.394 250.35H781.484V197.57H798.774V264H785.124L782.784 259.32C779.49 262.44 775.547 264 770.954 264ZM860.207 264H847.077L844.737 259.32C842.83 261.053 841.01 262.267 839.277 262.96C837.63 263.653 835.117 264 831.737 264H820.427C816.613 260.36 813.58 255.593 811.327 249.7C809.16 243.807 808.077 237.22 808.077 229.94C808.077 222.573 809.16 216.333 811.327 211.22C813.58 206.107 816.743 201.557 820.817 197.57H831.997C836.59 197.57 840.23 198.783 842.917 201.21V173H860.207V264ZM842.917 211.22H830.437C827.23 216.68 825.627 223.397 825.627 231.37C825.627 239.257 827.187 245.583 830.307 250.35H842.917V211.22ZM871.342 264V197.57H888.502V264H871.342ZM871.342 173H888.502V190.55H871.342V173ZM939.173 264H910.833C902.166 255.94 897.833 244.933 897.833 230.98C897.833 223.96 898.786 217.85 900.693 212.65C902.686 207.45 905.806 202.423 910.053 197.57H940.473C944.979 202.77 948.056 207.84 949.703 212.78C951.349 217.633 952.173 223.7 952.173 230.98C952.173 244.933 947.839 255.94 939.173 264ZM920.063 250.35H929.943C933.063 244.283 934.623 237.393 934.623 229.68C934.623 221.967 933.019 215.813 929.813 211.22H920.063C916.943 215.64 915.383 221.923 915.383 230.07C915.383 238.13 916.943 244.89 920.063 250.35Z" fill="#E7E1EA"/>
</svg>
